<?xml version="1.0" encoding="UTF-8"?>
<!DOCTYPE svg PUBLIC "-//W3C//DTD SVG 1.1//EN" "http://www.w3.org/Graphics/SVG/1.1/DTD/svg11.dtd">
<svg xmlns="http://www.w3.org/2000/svg" version="1.1" width="100px" height="30px" style="shape-rendering:geometricPrecision; text-rendering:geometricPrecision; image-rendering:optimizeQuality; fill-rule:evenodd; clip-rule:evenodd" xmlns:xlink="http://www.w3.org/1999/xlink">
<g><path style="opacity:1" fill="#f9fafa" d="M -0.5,-0.5 C 32.8333,-0.5 66.1667,-0.5 99.5,-0.5C 99.5,9.5 99.5,19.5 99.5,29.5C 66.1667,29.5 32.8333,29.5 -0.5,29.5C -0.5,24.1667 -0.5,18.8333 -0.5,13.5C 0.682431,16.0092 2.68243,17.3426 5.5,17.5C 6.75841,23.4592 10.0917,24.9592 15.5,22C 19.0517,16.5593 17.7183,13.0593 11.5,11.5C 10.4907,6.65355 7.49073,4.82022 2.5,6C 1.62656,7.04499 0.626561,7.87833 -0.5,8.5C -0.5,5.5 -0.5,2.5 -0.5,-0.5 Z"/></g>
<g><path style="opacity:1" fill="#2f374a" d="M 33.5,4.5 C 34.5,4.5 35.5,4.5 36.5,4.5C 36.5,5.5 36.5,6.5 36.5,7.5C 35.5,7.5 34.5,7.5 33.5,7.5C 33.5,6.5 33.5,5.5 33.5,4.5 Z"/></g>
<g><path style="opacity:1" fill="#2f374a" d="M 41.5,4.5 C 42.5,4.5 43.5,4.5 44.5,4.5C 44.5,5.5 44.5,6.5 44.5,7.5C 43.5,7.5 42.5,7.5 41.5,7.5C 41.5,6.5 41.5,5.5 41.5,4.5 Z"/></g>
<g><path style="opacity:1" fill="#2f374a" d="M 93.5,4.5 C 94.5,4.5 95.5,4.5 96.5,4.5C 96.5,5.5 96.5,6.5 96.5,7.5C 95.5,7.5 94.5,7.5 93.5,7.5C 93.5,6.5 93.5,5.5 93.5,4.5 Z"/></g>
<g><path style="opacity:1" fill="#239efd" d="M 11.5,11.5 C 7.83333,11.8333 5.83333,13.8333 5.5,17.5C 2.68243,17.3426 0.682431,16.0092 -0.5,13.5C -0.5,11.8333 -0.5,10.1667 -0.5,8.5C 0.626561,7.87833 1.62656,7.04499 2.5,6C 7.49073,4.82022 10.4907,6.65355 11.5,11.5 Z"/></g>
<g><path style="opacity:1" fill="#323a4d" d="M 31.5,9.5 C 33.1667,9.5 34.8333,9.5 36.5,9.5C 36.5,13.8333 36.5,18.1667 36.5,22.5C 35.5,22.5 34.5,22.5 33.5,22.5C 33.7284,17.9849 33.0617,13.6516 31.5,9.5 Z"/></g>
<g><path style="opacity:1" fill="#323a4d" d="M 39.5,9.5 C 41.1667,9.5 42.8333,9.5 44.5,9.5C 44.5,13.8333 44.5,18.1667 44.5,22.5C 43.5,22.5 42.5,22.5 41.5,22.5C 41.7284,17.9849 41.0617,13.6516 39.5,9.5 Z"/></g>
<g><path style="opacity:1" fill="#3a4154" d="M 49.5,9.5 C 52.8066,9.06317 55.8066,9.72984 58.5,11.5C 59.4259,15.0938 59.7592,18.7604 59.5,22.5C 56.3158,22.1669 52.9825,22.0002 49.5,22C 47.6751,20.5341 47.1751,18.7008 48,16.5C 50.2428,15.0292 52.7428,14.0292 55.5,13.5C 55.3764,12.8933 55.0431,12.56 54.5,12.5C 52.4687,12.0276 50.8021,11.0276 49.5,9.5 Z"/></g>
<g><path style="opacity:1" fill="#3b4254" d="M 64.5,9.5 C 66.8568,9.33669 69.1902,9.50335 71.5,10C 74.0605,11.2059 74.5605,12.7059 73,14.5C 71.2998,13.0734 69.4665,12.24 67.5,12C 64.8333,14.6667 64.8333,17.3333 67.5,20C 69.6736,19.0628 72.0069,18.2294 74.5,17.5C 74.7035,19.3904 74.0368,20.8904 72.5,22C 69.8333,22.6667 67.1667,22.6667 64.5,22C 61.8701,17.8344 61.8701,13.6678 64.5,9.5 Z"/></g>
<g><path style="opacity:1" fill="#2f364a" d="M 77.5,5.5 C 78.5,5.5 79.5,5.5 80.5,5.5C 80.3379,7.5273 80.5045,9.5273 81,11.5C 83.6667,8.83333 86.3333,8.83333 89,11.5C 89.4986,15.1516 89.6653,18.8183 89.5,22.5C 88.5,22.5 87.5,22.5 86.5,22.5C 86.6646,19.4816 86.498,16.4816 86,13.5C 84.3333,12.1667 82.6667,12.1667 81,13.5C 80.502,16.4816 80.3354,19.4816 80.5,22.5C 79.5,22.5 78.5,22.5 77.5,22.5C 77.5,16.8333 77.5,11.1667 77.5,5.5 Z"/></g>
<g><path style="opacity:1" fill="#323a4d" d="M 91.5,9.5 C 93.1667,9.5 94.8333,9.5 96.5,9.5C 96.5,13.8333 96.5,18.1667 96.5,22.5C 95.5,22.5 94.5,22.5 93.5,22.5C 93.7284,17.9849 93.0617,13.6516 91.5,9.5 Z"/></g>
<g><path style="opacity:1" fill="#7f8490" d="M 49.5,9.5 C 50.8021,11.0276 52.4687,12.0276 54.5,12.5C 52.5,12.5 50.5,12.5 48.5,12.5C 48.2627,11.209 48.596,10.209 49.5,9.5 Z"/></g>
<g><path style="opacity:1" fill="#2e374c" d="M 11.5,11.5 C 17.7183,13.0593 19.0517,16.5593 15.5,22C 10.0917,24.9592 6.75841,23.4592 5.5,17.5C 5.83333,13.8333 7.83333,11.8333 11.5,11.5 Z"/></g>
<g><path style="opacity:1" fill="#f4f5f6" d="M 51.5,16.5 C 52.8333,16.5 54.1667,16.5 55.5,16.5C 55.8333,19.5 54.5,20.8333 51.5,20.5C 51.5,19.1667 51.5,17.8333 51.5,16.5 Z"/></g>
</svg>
